<?xml version="1.0" encoding="iso-8859-1"?>
<!-- Generator: Adobe Illustrator 18.0.0, SVG Export Plug-In . SVG Version: 6.00 Build 0)  -->
<!DOCTYPE svg PUBLIC "-//W3C//DTD SVG 1.1//EN" "http://www.w3.org/Graphics/SVG/1.1/DTD/svg11.dtd">
	<svg xmlns="http://www.w3.org/2000/svg" xmlns:xlink="http://www.w3.org/1999/xlink"	version="1.1" x="0px" y="0px" class='icon-main' width='16px' viewBox="0 0 100 100" enable-background="new 0 0 100 100" xml:space="preserve" fill='#fff'>
			<path d="M5.004,79.905C5.004,88.241,11.761,95,20.099,95h27.507V52.396H5.004V79.905z M16.533,64.442l3.589-3.589l7.505,7.553  l7.555-7.553l3.586,3.589l-7.599,7.553l7.599,7.553l-3.586,3.588l-7.555-7.602l-7.601,7.602l-3.588-3.588l7.601-7.553L16.533,64.442  z"/>
			<path d="M95.003,20.096C95.003,11.761,88.242,5,79.908,5H52.396v42.603h42.606V20.096z M81.803,30.335h-16.08v-5.965h16.08V30.335z"/>
			<path d="M5,20.095v27.511h42.606V5H20.1C11.761,5,5,11.761,5,20.095z M25.237,15.873h4.732v8.8h8.8v4.73h-8.8v8.8h-4.732v-8.8  h-8.798v-4.73h8.798V15.873z"/>
			<path d="M52.398,52.396V95h27.506c8.339,0,15.1-6.759,15.1-15.095V52.396H52.398z M71.154,59.572  c0.751-0.723,1.627-1.085,2.63-1.085c0.502,0,0.975,0.098,1.415,0.289c0.442,0.193,0.833,0.456,1.171,0.796  c0.339,0.339,0.612,0.737,0.818,1.195c0.207,0.456,0.311,0.949,0.311,1.479c0,0.471-0.104,0.929-0.311,1.372  c-0.207,0.444-0.473,0.84-0.795,1.193c-0.325,0.355-0.707,0.635-1.151,0.84c-0.441,0.207-0.914,0.311-1.414,0.311  c-0.531,0-1.024-0.097-1.48-0.287c-0.459-0.193-0.855-0.458-1.193-0.797c-0.338-0.339-0.612-0.736-0.818-1.192  c-0.207-0.458-0.311-0.936-0.311-1.439C70.025,61.186,70.401,60.294,71.154,59.572z M77.189,81.924  c-0.207,0.442-0.473,0.84-0.795,1.195c-0.325,0.353-0.707,0.639-1.151,0.86c-0.441,0.222-0.914,0.332-1.414,0.332  c-0.531,0-1.024-0.103-1.48-0.309c-0.459-0.205-0.855-0.479-1.193-0.818c-0.338-0.34-0.612-0.736-0.818-1.194  s-0.311-0.921-0.311-1.394c0-0.531,0.104-1.016,0.311-1.458c0.207-0.444,0.48-0.833,0.818-1.171  c0.338-0.338,0.734-0.604,1.193-0.797c0.456-0.19,0.936-0.286,1.437-0.286c0.502,0,0.975,0.096,1.415,0.286  c0.442,0.193,0.833,0.459,1.171,0.797c0.339,0.339,0.612,0.728,0.818,1.171c0.207,0.443,0.311,0.928,0.311,1.458  C77.5,81.04,77.396,81.483,77.189,81.924z M84.928,73.787h-22.33v-4.729h22.33V73.787z"/>
	</svg>
